<svg width="131" height="48" viewBox="0 0 131 48" fill="none" xmlns="http://www.w3.org/2000/svg">
<path d="M57.892 16.4545L61.4077 27.5057H61.5426L65.0653 16.4545H68.4744L63.4602 31H59.4972L54.4759 16.4545H57.892ZM69.5683 31V20.0909H72.5939V31H69.5683ZM71.0882 18.6847C70.6384 18.6847 70.2525 18.5355 69.9305 18.2372C69.6133 17.9342 69.4547 17.572 69.4547 17.1506C69.4547 16.7339 69.6133 16.3764 69.9305 16.0781C70.2525 15.7751 70.6384 15.6236 71.0882 15.6236C71.538 15.6236 71.9215 15.7751 72.2388 16.0781C72.5607 16.3764 72.7217 16.7339 72.7217 17.1506C72.7217 17.572 72.5607 17.9342 72.2388 18.2372C71.9215 18.5355 71.538 18.6847 71.0882 18.6847ZM80.2201 20.0909V22.3636H73.6505V20.0909H80.2201ZM75.142 17.4773H78.1675V27.6477C78.1675 27.9271 78.2102 28.1449 78.2954 28.3011C78.3806 28.4527 78.499 28.5592 78.6505 28.6207C78.8067 28.6823 78.9867 28.7131 79.1903 28.7131C79.3323 28.7131 79.4744 28.7012 79.6164 28.6776C79.7585 28.6491 79.8674 28.6278 79.9431 28.6136L80.419 30.8651C80.2674 30.9124 80.0544 30.9669 79.7798 31.0284C79.5051 31.0947 79.1713 31.1349 78.7783 31.1491C78.0492 31.1776 77.41 31.0805 76.8607 30.858C76.3162 30.6354 75.8924 30.2898 75.5894 29.821C75.2864 29.3523 75.1372 28.7604 75.142 28.0455V17.4773ZM84.7018 31.206C84.0058 31.206 83.3855 31.0852 82.841 30.8438C82.2965 30.5975 81.8656 30.2353 81.5484 29.7571C81.2359 29.2741 81.0796 28.6728 81.0796 27.9531C81.0796 27.3471 81.1909 26.8381 81.4134 26.4261C81.636 26.0142 81.939 25.6828 82.3225 25.4318C82.706 25.1809 83.1416 24.9915 83.6293 24.8636C84.1218 24.7358 84.6379 24.6458 85.1776 24.5938C85.8121 24.5275 86.3235 24.4659 86.7117 24.4091C87.1 24.3475 87.3817 24.2576 87.5569 24.1392C87.7321 24.0208 87.8197 23.8456 87.8197 23.6136V23.571C87.8197 23.1212 87.6776 22.7732 87.3935 22.527C87.1142 22.2808 86.7165 22.1577 86.2004 22.1577C85.6558 22.1577 85.2226 22.2784 84.9006 22.5199C84.5787 22.7566 84.3656 23.0549 84.2614 23.4148L81.4631 23.1875C81.6052 22.5246 81.8845 21.9517 82.3012 21.4688C82.7179 20.9811 83.2553 20.607 83.9134 20.3466C84.5763 20.0814 85.3433 19.9489 86.2146 19.9489C86.8206 19.9489 87.4006 20.0199 87.9546 20.1619C88.5133 20.304 89.0081 20.5241 89.439 20.8224C89.8746 21.1207 90.2179 21.5043 90.4688 21.973C90.7198 22.437 90.8452 22.9934 90.8452 23.642V31H87.9759V29.4872H87.8907C87.7155 29.8281 87.4811 30.1288 87.1876 30.3892C86.894 30.6449 86.5413 30.8461 86.1293 30.9929C85.7174 31.1349 85.2415 31.206 84.7018 31.206ZM85.5683 29.1179C86.0133 29.1179 86.4063 29.0303 86.7472 28.8551C87.0881 28.6752 87.3557 28.4337 87.5498 28.1307C87.7439 27.8277 87.841 27.4844 87.841 27.1009V25.9432C87.7463 26.0047 87.6161 26.0616 87.4504 26.1136C87.2894 26.161 87.1071 26.206 86.9035 26.2486C86.6999 26.2865 86.4963 26.322 86.2927 26.3551C86.0891 26.3835 85.9044 26.4096 85.7387 26.4332C85.3836 26.4853 85.0735 26.5682 84.8083 26.6818C84.5432 26.7955 84.3372 26.9493 84.1904 27.1435C84.0436 27.3329 83.9702 27.5696 83.9702 27.8537C83.9702 28.2656 84.1194 28.5805 84.4177 28.7983C84.7207 29.0114 85.1042 29.1179 85.5683 29.1179ZM95.6181 16.4545V31H92.5925V16.4545H95.6181ZM97.4986 31V16.4545H107.129V18.9901H100.574V22.456H106.49V24.9915H100.574V31H97.4986ZM108.541 31V20.0909H111.567V31H108.541ZM110.061 18.6847C109.611 18.6847 109.225 18.5355 108.903 18.2372C108.586 17.9342 108.427 17.572 108.427 17.1506C108.427 16.7339 108.586 16.3764 108.903 16.0781C109.225 15.7751 109.611 15.6236 110.061 15.6236C110.511 15.6236 110.894 15.7751 111.211 16.0781C111.533 16.3764 111.694 16.7339 111.694 17.1506C111.694 17.572 111.533 17.9342 111.211 18.2372C110.894 18.5355 110.511 18.6847 110.061 18.6847ZM119.193 20.0909V22.3636H112.623V20.0909H119.193ZM114.115 17.4773H117.14V27.6477C117.14 27.9271 117.183 28.1449 117.268 28.3011C117.353 28.4527 117.472 28.5592 117.623 28.6207C117.779 28.6823 117.959 28.7131 118.163 28.7131C118.305 28.7131 118.447 28.7012 118.589 28.6776C118.731 28.6491 118.84 28.6278 118.916 28.6136L119.392 30.8651C119.24 30.9124 119.027 30.9669 118.752 31.0284C118.478 31.0947 118.144 31.1349 117.751 31.1491C117.022 31.1776 116.383 31.0805 115.833 30.858C115.289 30.6354 114.865 30.2898 114.562 29.821C114.259 29.3523 114.11 28.7604 114.115 28.0455V17.4773Z" fill="black"/>
<path d="M34.8193 10H18.2731L10 24.3286L18.2731 38.6571H34.818L43.0911 24.3286L34.818 10H34.8193ZM32.8401 35.2294H20.2535L13.9597 24.3286L20.2535 13.4277H32.8401L39.134 24.3286L32.8401 35.2294Z" fill="black"/>
<path d="M32.1488 14.6289H20.9454L15.3438 24.3313L20.9454 34.0336H32.1488L37.7505 24.3313L32.1488 14.6289ZM30.1697 30.6047H22.9259L19.3034 24.3313L22.9259 18.0579H30.1697L33.7922 24.3313L30.1697 30.6047Z" fill="black"/>
</svg>
