<svg width="159" height="48" viewBox="0 0 159 48" fill="none" xmlns="http://www.w3.org/2000/svg">
<path d="M52.3482 31V16.4545H58.0868C59.19 16.4545 60.1299 16.6652 60.9064 17.0866C61.6829 17.5033 62.2748 18.0833 62.682 18.8267C63.0939 19.5653 63.2999 20.4176 63.2999 21.3835C63.2999 22.3494 63.0916 23.2017 62.6749 23.9403C62.2582 24.679 61.6545 25.2543 60.8638 25.6662C60.0778 26.0781 59.1261 26.2841 58.0087 26.2841H54.351V23.8196H57.5115C58.1034 23.8196 58.5911 23.7178 58.9746 23.5142C59.3629 23.3059 59.6517 23.0194 59.8411 22.6548C60.0352 22.2855 60.1323 21.8617 60.1323 21.3835C60.1323 20.9006 60.0352 20.4792 59.8411 20.1193C59.6517 19.7547 59.3629 19.473 58.9746 19.2741C58.5864 19.0705 58.0939 18.9688 57.4973 18.9688H55.4235V31H52.3482ZM71.6363 26.3551V20.0909H74.6619V31H71.7571V29.0185H71.6434C71.3972 29.6577 70.9877 30.1714 70.4147 30.5597C69.8466 30.9479 69.1529 31.142 68.3338 31.142C67.6046 31.142 66.963 30.9763 66.4091 30.6449C65.8551 30.3134 65.4218 29.8423 65.1093 29.2315C64.8016 28.6207 64.6453 27.8892 64.6406 27.0369V20.0909H67.6662V26.4972C67.6709 27.1411 67.8437 27.6501 68.1846 28.0241C68.5255 28.3982 68.9824 28.5852 69.5554 28.5852C69.9199 28.5852 70.2609 28.5024 70.5781 28.3366C70.8953 28.1662 71.151 27.9152 71.3451 27.5838C71.544 27.2524 71.6411 26.8428 71.6363 26.3551ZM76.482 31V20.0909H79.4152V21.9943H79.5289C79.7277 21.3172 80.0615 20.8059 80.5303 20.4602C80.999 20.1098 81.5388 19.9347 82.1496 19.9347C82.3011 19.9347 82.4645 19.9441 82.6397 19.9631C82.8149 19.982 82.9687 20.008 83.1013 20.0412V22.7259C82.9593 22.6832 82.7628 22.6454 82.5118 22.6122C82.2609 22.5791 82.0312 22.5625 81.8229 22.5625C81.3778 22.5625 80.9801 22.6596 80.6297 22.8537C80.2841 23.0431 80.0095 23.3082 79.8059 23.6491C79.607 23.9901 79.5076 24.383 79.5076 24.8281V31H76.482ZM88.5294 31.2131C87.4072 31.2131 86.4413 30.9858 85.6316 30.5312C84.8267 30.072 84.2065 29.4233 83.7708 28.5852C83.3352 27.7424 83.1174 26.7457 83.1174 25.5952C83.1174 24.473 83.3352 23.4882 83.7708 22.6406C84.2065 21.7931 84.8196 21.1326 85.6103 20.6591C86.4058 20.1856 87.3386 19.9489 88.4086 19.9489C89.1283 19.9489 89.7983 20.0649 90.4186 20.2969C91.0436 20.5241 91.5881 20.8674 92.0521 21.3267C92.5208 21.786 92.8854 22.3636 93.1458 23.0597C93.4063 23.7509 93.5365 24.5606 93.5365 25.4886V26.3196H84.3248V24.4446H90.6885C90.6885 24.009 90.5938 23.6231 90.4044 23.2869C90.215 22.9508 89.9522 22.688 89.616 22.4986C89.2846 22.3045 88.8987 22.2074 88.4583 22.2074C87.9991 22.2074 87.5919 22.3139 87.2368 22.527C86.8864 22.7353 86.6118 23.017 86.4129 23.3722C86.214 23.7225 86.1122 24.1132 86.1075 24.544V26.3267C86.1075 26.8665 86.2069 27.3329 86.4058 27.7259C86.6094 28.1188 86.8958 28.4219 87.2652 28.6349C87.6345 28.848 88.0725 28.9545 88.5791 28.9545C88.9153 28.9545 89.223 28.9072 89.5024 28.8125C89.7817 28.7178 90.0208 28.5758 90.2197 28.3864C90.4186 28.197 90.5701 27.965 90.6743 27.6903L93.4726 27.875C93.3305 28.5473 93.0393 29.1345 92.599 29.6364C92.1634 30.1335 91.5999 30.5218 90.9086 30.8011C90.2221 31.0758 89.429 31.2131 88.5294 31.2131ZM104.613 21.1562C104.513 20.8106 104.373 20.5052 104.194 20.2401C104.014 19.9702 103.793 19.7429 103.533 19.5582C103.277 19.3688 102.984 19.2244 102.652 19.125C102.326 19.0256 101.963 18.9759 101.566 18.9759C100.822 18.9759 100.169 19.1605 99.6055 19.5298C99.0468 19.8991 98.6112 20.4366 98.2987 21.142C97.9862 21.8428 97.8299 22.6998 97.8299 23.7131C97.8299 24.7263 97.9838 25.5881 98.2916 26.2983C98.5993 27.0085 99.035 27.5507 99.5984 27.9247C100.162 28.294 100.827 28.4787 101.594 28.4787C102.29 28.4787 102.884 28.3556 103.377 28.1094C103.874 27.8584 104.253 27.5057 104.513 27.0511C104.778 26.5966 104.911 26.0592 104.911 25.4389L105.536 25.5312H101.786V23.2159H107.873V25.0483C107.873 26.3267 107.603 27.4252 107.063 28.3438C106.523 29.2576 105.78 29.9631 104.833 30.4602C103.886 30.9527 102.802 31.1989 101.58 31.1989C100.216 31.1989 99.0184 30.8982 97.9862 30.2969C96.954 29.6908 96.1491 28.8314 95.5714 27.7188C94.9985 26.6013 94.712 25.2756 94.712 23.7415C94.712 22.5625 94.8825 21.5114 95.2234 20.5881C95.569 19.66 96.052 18.8741 96.6723 18.2301C97.2925 17.5862 98.0146 17.0961 98.8385 16.7599C99.6623 16.4238 100.555 16.2557 101.516 16.2557C102.34 16.2557 103.107 16.3764 103.817 16.6179C104.527 16.8546 105.157 17.1908 105.706 17.6264C106.26 18.062 106.713 18.5805 107.063 19.1818C107.413 19.7784 107.638 20.4366 107.738 21.1562H104.613ZM112.551 16.4545V31H109.526V16.4545H112.551ZM119.304 31.2131C118.201 31.2131 117.247 30.9787 116.442 30.5099C115.642 30.0365 115.024 29.3783 114.588 28.5355C114.152 27.688 113.935 26.7055 113.935 25.5881C113.935 24.4612 114.152 23.4763 114.588 22.6335C115.024 21.786 115.642 21.1278 116.442 20.6591C117.247 20.1856 118.201 19.9489 119.304 19.9489C120.407 19.9489 121.359 20.1856 122.159 20.6591C122.964 21.1278 123.584 21.786 124.02 22.6335C124.455 23.4763 124.673 24.4612 124.673 25.5881C124.673 26.7055 124.455 27.688 124.02 28.5355C123.584 29.3783 122.964 30.0365 122.159 30.5099C121.359 30.9787 120.407 31.2131 119.304 31.2131ZM119.318 28.8693C119.82 28.8693 120.239 28.7273 120.575 28.4432C120.911 28.1544 121.165 27.7614 121.335 27.2642C121.51 26.767 121.598 26.2012 121.598 25.5668C121.598 24.9323 121.51 24.3665 121.335 23.8693C121.165 23.3722 120.911 22.9792 120.575 22.6903C120.239 22.4015 119.82 22.2571 119.318 22.2571C118.812 22.2571 118.385 22.4015 118.04 22.6903C117.699 22.9792 117.441 23.3722 117.266 23.8693C117.095 24.3665 117.01 24.9323 117.01 25.5668C117.01 26.2012 117.095 26.767 117.266 27.2642C117.441 27.7614 117.699 28.1544 118.04 28.4432C118.385 28.7273 118.812 28.8693 119.318 28.8693ZM127.919 31L124.95 20.0909H128.011L129.702 27.4205H129.801L131.563 20.0909H134.567L136.357 27.3778H136.449L138.111 20.0909H141.165L138.203 31H135L133.125 24.1392H132.99L131.115 31H127.919Z" fill="black"/>
<path d="M39.7353 35.8961C39.4788 35.6396 39.3353 35.2933 39.3353 34.9311V28.1063C39.3353 27.3528 38.7253 26.7428 37.9718 26.7428H31.1471C30.7848 26.7428 30.4385 26.5993 30.182 26.3429L28.8069 24.9678C28.2737 24.436 28.2737 23.5724 28.8069 23.0391L30.182 21.6626C30.4385 21.4076 30.7848 21.2627 31.1471 21.2627H37.9718C38.7253 21.2627 39.3353 20.6526 39.3353 19.8992V13.0729C39.3353 12.7121 39.4788 12.3644 39.7353 12.1094L41.5132 10.33C42.0464 9.79821 42.0464 8.9346 41.5132 8.40137C40.9814 7.86959 40.1178 7.86959 39.5846 8.40137L37.8066 10.1793C37.5502 10.4358 37.2039 10.5792 36.8431 10.5792H36.1838H30.0168C29.2634 10.5792 28.6533 11.1892 28.6533 11.9427V18.7675C28.6533 19.1297 28.5099 19.476 28.2549 19.7325L26.8783 21.1076C26.3465 21.6408 25.4829 21.6408 24.9497 21.1076L23.5746 19.7325C23.3181 19.4775 23.1747 19.1297 23.1747 18.7675V11.9427C23.1747 11.1892 22.5647 10.5792 21.8112 10.5792H14.9864C14.6256 10.5792 14.2779 10.4358 14.0228 10.1793L12.2435 8.39992C11.7102 7.86669 10.8481 7.86669 10.3149 8.39992C9.78307 8.9317 9.78307 9.79531 10.3149 10.3285L12.0942 12.1079C12.3507 12.3644 12.4941 12.7107 12.4941 13.0729V19.8977C12.4941 20.6512 13.1042 21.2612 13.8576 21.2612H20.6824C21.0447 21.2612 21.391 21.4047 21.646 21.6611L23.0225 23.0377C23.5543 23.5695 23.5543 24.4331 23.0225 24.9663L21.646 26.3414C21.3895 26.5979 21.0432 26.7413 20.6824 26.7413H13.8576C13.1042 26.7413 12.4941 27.3513 12.4941 28.1048V34.2718V34.9311C12.4941 35.2919 12.3507 35.6396 12.0942 35.8946L10.3163 37.6725C9.78307 38.2058 9.78307 39.0679 10.3163 39.6012C10.8495 40.1329 11.7117 40.1329 12.2449 39.6012L14.0228 37.8218C14.2793 37.5668 14.6256 37.4219 14.9864 37.4219H21.8126C22.5661 37.4219 23.1761 36.8119 23.1761 36.0584V29.2336C23.1761 28.8728 23.3196 28.525 23.5761 28.27L24.9512 26.8935C25.4844 26.3617 26.348 26.3617 26.8798 26.8935L28.2549 28.2686C28.5113 28.525 28.6548 28.8713 28.6548 29.2336V36.0584C28.6548 36.8104 29.2663 37.4219 30.0183 37.4219H36.1852H36.8445C37.2068 37.4219 37.5531 37.5653 37.8081 37.8218L39.5875 39.6012C40.1192 40.1329 40.9828 40.1329 41.5161 39.6012C42.0493 39.0679 42.0493 38.2058 41.5161 37.6725L39.7382 35.8946L39.7353 35.8961Z" fill="#0C0407"/>
</svg>
