<svg width="28" height="28" viewBox="0 0 28 28" fill="none" xmlns="http://www.w3.org/2000/svg">
<path d="M14 2.33325C16.7848 2.33325 19.4555 3.4395 21.4246 5.40863C23.3938 7.37776 24.5 10.0485 24.5 12.8333V21.5833C24.5004 22.4559 24.2213 23.3056 23.7035 24.008C23.1858 24.7104 22.4567 25.2285 21.623 25.4863C20.7894 25.7441 19.895 25.728 19.0712 25.4405C18.2473 25.153 17.5372 24.6091 17.045 23.8886C16.7402 24.4284 16.2975 24.8775 15.7622 25.19C15.2269 25.5025 14.6181 25.6672 13.9982 25.6672C13.3784 25.6672 12.7696 25.5025 12.2343 25.19C11.699 24.8775 11.2563 24.4284 10.9515 23.8886C10.4697 24.5919 9.77982 25.1268 8.97865 25.4182C8.17748 25.7096 7.30518 25.743 6.48409 25.5136C5.66301 25.2842 4.93431 24.8036 4.4002 24.1391C3.86609 23.4746 3.55334 22.6596 3.50583 21.8084L3.5 21.5821V12.8333C3.5 10.0485 4.60625 7.37776 6.57538 5.40863C8.54451 3.4395 11.2152 2.33325 14 2.33325ZM14 4.66659C11.8825 4.66655 9.84781 5.48896 8.32507 6.96034C6.80232 8.43172 5.9106 10.437 5.838 12.5533L5.83333 12.8333V21.5203L5.83567 21.6813C5.85577 22.031 5.98038 22.3667 6.19337 22.6448C6.40636 22.9229 6.69792 23.1307 7.03033 23.2413C7.36273 23.3519 7.72068 23.3602 8.05785 23.2651C8.39501 23.17 8.69587 22.9759 8.9215 22.7079L9.02417 22.5726C9.24757 22.245 9.55075 21.9798 9.9051 21.8019C10.2595 21.6241 10.6533 21.5394 11.0494 21.556C11.4456 21.5726 11.831 21.6898 12.1692 21.8967C12.5075 22.1035 12.7874 22.3932 12.9827 22.7383C13.0839 22.9183 13.2311 23.0682 13.4092 23.1726C13.5874 23.2771 13.7901 23.3323 13.9966 23.3326C14.2032 23.333 14.4061 23.2785 14.5846 23.1747C14.7631 23.0708 14.9108 22.9214 15.0127 22.7418C15.1994 22.4102 15.4644 22.1294 15.7846 21.9238C16.1047 21.7181 16.4703 21.5939 16.8495 21.5619C17.2287 21.5299 17.6099 21.5912 17.96 21.7403C18.31 21.8894 18.6183 22.1219 18.858 22.4174L18.9712 22.5691C19.1737 22.8665 19.463 23.0943 19.7996 23.2214C20.1363 23.3484 20.5039 23.3687 20.8525 23.2793C21.201 23.1899 21.5135 22.9952 21.7474 22.7218C21.9814 22.4483 22.1253 22.1094 22.1597 21.7513L22.1667 21.5833V12.8333C22.1667 10.6673 21.3063 8.59009 19.7747 7.05855C18.2432 5.527 16.1659 4.66659 14 4.66659ZM18.6667 15.1666C18.6667 16.3841 18.1909 17.5534 17.3409 18.4249C16.4908 19.2965 15.3338 19.8014 14.1167 19.8319C12.8996 19.8623 11.7188 19.4159 10.8262 18.5879C9.93366 17.7599 9.40002 16.6159 9.33917 15.3999L9.33333 15.1666H11.6667C11.6667 15.7854 11.9125 16.3789 12.3501 16.8165C12.7877 17.2541 13.3812 17.4999 14 17.4999C14.6188 17.4999 15.2123 17.2541 15.6499 16.8165C16.0875 16.3789 16.3333 15.7854 16.3333 15.1666H18.6667ZM14 8.16659C14.6188 8.16659 15.2123 8.41242 15.6499 8.85C16.0875 9.28759 16.3333 9.88108 16.3333 10.4999C16.3333 11.1188 16.0875 11.7122 15.6499 12.1498C15.2123 12.5874 14.6188 12.8333 14 12.8333C13.3812 12.8333 12.7877 12.5874 12.3501 12.1498C11.9125 11.7122 11.6667 11.1188 11.6667 10.4999C11.6667 9.88108 11.9125 9.28759 12.3501 8.85C12.7877 8.41242 13.3812 8.16659 14 8.16659Z" fill="#0C0407"/>
</svg>
