<svg width="40" height="40" viewBox="0 0 40 40" fill="none" xmlns="http://www.w3.org/2000/svg">
<path d="M26.6668 26.6667C29.4285 26.6667 31.6668 28.905 31.6668 31.6667C31.6668 34.4284 29.4285 36.6667 26.6668 36.6667C23.9052 36.6667 21.6668 34.4284 21.6668 31.6667C21.6668 28.905 23.9052 26.6667 26.6668 26.6667ZM10.0002 20C13.6835 20 16.6668 22.9834 16.6668 26.6667C16.6668 30.35 13.6835 33.3334 10.0002 33.3334C6.31683 33.3334 3.3335 30.35 3.3335 26.6667C3.3335 22.9834 6.31683 20 10.0002 20ZM26.6668 30C25.7468 30 25.0002 30.7467 25.0002 31.6667C25.0002 32.5867 25.7468 33.3334 26.6668 33.3334C27.5868 33.3334 28.3335 32.5867 28.3335 31.6667C28.3335 30.7467 27.5868 30 26.6668 30ZM10.0002 23.3334C8.1585 23.3334 6.66683 24.825 6.66683 26.6667C6.66683 28.5084 8.1585 30 10.0002 30C11.8418 30 13.3335 28.5084 13.3335 26.6667C13.3335 24.825 11.8418 23.3334 10.0002 23.3334ZM24.1668 3.33337C29.2302 3.33337 33.3335 7.43671 33.3335 12.5C33.3335 17.5634 29.2302 21.6667 24.1668 21.6667C19.1035 21.6667 15.0002 17.5634 15.0002 12.5C15.0002 7.43671 19.1035 3.33337 24.1668 3.33337ZM24.1668 6.66671C20.9452 6.66671 18.3335 9.27837 18.3335 12.5C18.3335 15.7217 20.9452 18.3334 24.1668 18.3334C27.3885 18.3334 30.0002 15.7217 30.0002 12.5C30.0002 9.27837 27.3885 6.66671 24.1668 6.66671Z" fill="#0C0407"/>
</svg>
