<svg width="40" height="40" viewBox="0 0 40 40" fill="none" xmlns="http://www.w3.org/2000/svg">
<path d="M25.7601 16.1301L25.5234 15.8934C24.4081 14.8179 23.0372 14.0442 21.5401 13.6451C16.6951 12.3484 12.0417 15.0934 10.7201 20.0284C10.6484 20.2951 10.6101 20.5951 10.5467 21.3467C10.2901 24.4634 9.55675 26.7884 7.54675 29.1467C11.3134 30.6267 15.7767 31.6701 19.1701 31.6701C21.1872 31.6676 23.1473 31.0004 24.7471 29.7718C26.3469 28.5432 27.4972 26.8216 28.0201 24.8734C28.4306 23.345 28.4383 21.7362 28.0422 20.2039C27.6461 18.6717 26.8599 17.2681 25.7601 16.1301ZM22.1501 10.3601L30.3817 3.95841C30.7022 3.70944 31.1025 3.58596 31.5076 3.61112C31.9126 3.63628 32.2945 3.80836 32.5817 4.09507L37.5734 9.08507C37.8606 9.37237 38.0329 9.75464 38.0581 10.1601C38.0833 10.5655 37.9595 10.9661 37.7101 11.2867L31.3101 19.5167C31.7613 21.3574 31.7884 23.2766 31.3893 25.1292C30.9902 26.9819 30.1753 28.7197 29.0062 30.2113C27.8371 31.7029 26.3443 32.9093 24.6407 33.7395C22.937 34.5697 21.0669 35.0019 19.1717 35.0034C13.3334 35.0034 5.83341 32.5001 1.66675 30.0001C8.30008 25.0001 6.74508 21.9834 7.50008 19.1667C9.26341 12.5834 15.5701 8.73841 22.1484 10.3601H22.1501ZM27.8384 13.4917C27.9467 13.5967 28.0551 13.7051 28.1601 13.8151L30.0517 15.7051L34.1767 10.4017L31.2667 7.49174L25.9634 11.6167L27.8384 13.4917Z" fill="#0C0407"/>
</svg>
