<svg width="40" height="40" viewBox="0 0 40 40" fill="none" xmlns="http://www.w3.org/2000/svg">
<path d="M34.9999 5C35.4419 5 35.8659 5.17559 36.1784 5.48816C36.491 5.80072 36.6666 6.22464 36.6666 6.66667V33.3333C36.6666 33.7754 36.491 34.1993 36.1784 34.5118C35.8659 34.8244 35.4419 35 34.9999 35H4.99992C4.55789 35 4.13397 34.8244 3.82141 34.5118C3.50885 34.1993 3.33325 33.7754 3.33325 33.3333V6.66667C3.33325 6.22464 3.50885 5.80072 3.82141 5.48816C4.13397 5.17559 4.55789 5 4.99992 5H34.9999ZM24.9999 8.33333H6.66659V31.6667H24.9999V8.33333ZM33.3333 8.33333H28.3333V31.6667H33.3333V8.33333Z" fill="#0C0407"/>
</svg>
