<svg width="28" height="28" viewBox="0 0 28 28" fill="none" xmlns="http://www.w3.org/2000/svg">
<path d="M13.9996 3.5C20.2903 3.5 25.5239 8.02667 26.6218 14C25.5251 19.9733 20.2903 24.5 13.9996 24.5C7.70894 24.5 2.47527 19.9733 1.37744 14C2.47411 8.02667 7.70894 3.5 13.9996 3.5ZM13.9996 22.1667C16.379 22.1662 18.6877 21.358 20.5479 19.8744C22.4082 18.3908 23.7097 16.3197 24.2394 14C23.7077 11.6822 22.4054 9.61334 20.5453 8.1317C18.6853 6.65006 16.3776 5.84328 13.9996 5.84328C11.6216 5.84328 9.31391 6.65006 7.45388 8.1317C5.59385 9.61334 4.2915 11.6822 3.75977 14C4.28955 16.3197 5.59106 18.3908 7.45128 19.8744C9.31149 21.358 11.6202 22.1662 13.9996 22.1667ZM13.9996 19.25C12.6072 19.25 11.2719 18.6969 10.2873 17.7123C9.30273 16.7277 8.74961 15.3924 8.74961 14C8.74961 12.6076 9.30273 11.2723 10.2873 10.2877C11.2719 9.30312 12.6072 8.75 13.9996 8.75C15.392 8.75 16.7274 9.30312 17.7119 10.2877C18.6965 11.2723 19.2496 12.6076 19.2496 14C19.2496 15.3924 18.6965 16.7277 17.7119 17.7123C16.7274 18.6969 15.392 19.25 13.9996 19.25ZM13.9996 16.9167C14.7732 16.9167 15.515 16.6094 16.062 16.0624C16.609 15.5154 16.9163 14.7735 16.9163 14C16.9163 13.2265 16.609 12.4846 16.062 11.9376C15.515 11.3906 14.7732 11.0833 13.9996 11.0833C13.2261 11.0833 12.4842 11.3906 11.9372 11.9376C11.3902 12.4846 11.0829 13.2265 11.0829 14C11.0829 14.7735 11.3902 15.5154 11.9372 16.0624C12.4842 16.6094 13.2261 16.9167 13.9996 16.9167Z" fill="#0C0407"/>
</svg>
