<svg width="40" height="40" viewBox="0 0 40 40" fill="none" xmlns="http://www.w3.org/2000/svg">
<path d="M6.6669 26.6667H33.3336V8.33333H6.6669V26.6667ZM21.6669 30V33.3333H28.3336V36.6667H11.6669V33.3333H18.3336V30H4.9869C4.76804 29.9987 4.55159 29.9542 4.34996 29.8691C4.14833 29.784 3.96548 29.6599 3.81188 29.504C3.65829 29.3481 3.53698 29.1634 3.4549 28.9605C3.37282 28.7576 3.33159 28.5405 3.33356 28.3217V6.67833C3.33356 5.75167 4.0919 5 4.9869 5H35.0136C35.9269 5 36.6669 5.74833 36.6669 6.67833V28.3217C36.6669 29.2483 35.9086 30 35.0136 30H21.6669Z" fill="#0C0407"/>
</svg>
