<svg width="40" height="40" viewBox="0 0 40 40" fill="none" xmlns="http://www.w3.org/2000/svg">
<path d="M18.3335 0.905041C18.8835 0.856707 19.4385 0.833374 20.0002 0.833374C30.5852 0.833374 39.1668 9.41504 39.1668 20C39.1668 20.5617 39.1435 21.1167 39.0952 21.6667H36.5852C35.7485 30.0884 28.6418 36.6667 20.0002 36.6667C10.7952 36.6667 3.3335 29.205 3.3335 20C3.3335 11.3584 9.91183 4.25171 18.3335 3.41671V0.903374V0.905041ZM18.3335 21.6667V6.77004C14.9713 7.19785 11.8983 8.88982 9.73881 11.5021C7.57937 14.1143 6.49563 17.4508 6.70786 20.8334C6.9201 24.216 8.41238 27.3909 10.8814 29.7127C13.3504 32.0346 16.6109 33.3292 20.0002 33.3334C23.2478 33.3333 26.3839 32.1481 28.8197 30C31.2556 27.852 32.8238 24.8889 33.2302 21.6667H18.3335ZM35.7468 18.3334C35.3647 14.7299 33.7585 11.3664 31.1962 8.80402C28.6338 6.24168 25.2703 4.63547 21.6668 4.25337V18.3334H35.7468Z" fill="#0C0407"/>
</svg>
