<svg width="117" height="30" viewBox="0 0 117 30" fill="none" xmlns="http://www.w3.org/2000/svg">
<path d="M22.24 2.456V22H18.32V9.288L13.084 22H10.116L4.852 9.288V22H0.932V2.456H5.384L11.6 16.988L17.816 2.456H22.24ZM27.0116 22.196C26.3023 22.196 25.7143 21.9813 25.2476 21.552C24.7996 21.104 24.5756 20.5533 24.5756 19.9C24.5756 19.2467 24.7996 18.7053 25.2476 18.276C25.7143 17.828 26.3023 17.604 27.0116 17.604C27.7023 17.604 28.2716 17.828 28.7196 18.276C29.1676 18.7053 29.3916 19.2467 29.3916 19.9C29.3916 20.5533 29.1676 21.104 28.7196 21.552C28.2716 21.9813 27.7023 22.196 27.0116 22.196ZM45.961 8.504C45.961 9.54933 45.709 10.5293 45.205 11.444C44.7197 12.3587 43.945 13.096 42.881 13.656C41.8357 14.216 40.5104 14.496 38.905 14.496H35.629V22H31.709V2.456H38.905C40.417 2.456 41.705 2.71733 42.769 3.24C43.833 3.76267 44.6264 4.48133 45.149 5.396C45.6904 6.31067 45.961 7.34667 45.961 8.504ZM38.737 11.332C39.8197 11.332 40.6224 11.0893 41.145 10.604C41.6677 10.1 41.929 9.4 41.929 8.504C41.929 6.6 40.865 5.648 38.737 5.648H35.629V11.332H38.737ZM56.6402 6.264C57.8162 6.264 58.8615 6.52533 59.7762 7.048C60.6909 7.552 61.4002 8.308 61.9042 9.316C62.4269 10.3053 62.6882 11.5 62.6882 12.9V22H58.7682V13.432C58.7682 12.2 58.4602 11.2573 57.8442 10.604C57.2282 9.932 56.3882 9.596 55.3242 9.596C54.2415 9.596 53.3829 9.932 52.7482 10.604C52.1322 11.2573 51.8242 12.2 51.8242 13.432V22H47.9042V1.28H51.8242V8.42C52.3282 7.748 53.0002 7.22533 53.8402 6.852C54.6802 6.46 55.6135 6.264 56.6402 6.264ZM67.5639 4.64C66.8732 4.64 66.2946 4.42533 65.8279 3.996C65.3799 3.548 65.1559 2.99733 65.1559 2.344C65.1559 1.69067 65.3799 1.14933 65.8279 0.719999C66.2946 0.271999 66.8732 0.0479989 67.5639 0.0479989C68.2546 0.0479989 68.8239 0.271999 69.2719 0.719999C69.7386 1.14933 69.9719 1.69067 69.9719 2.344C69.9719 2.99733 69.7386 3.548 69.2719 3.996C68.8239 4.42533 68.2546 4.64 67.5639 4.64ZM69.4959 6.488V22H65.5759V6.488H69.4959ZM76.4489 1.28V22H72.5289V1.28H76.4489ZM81.4698 4.64C80.7792 4.64 80.2005 4.42533 79.7338 3.996C79.2858 3.548 79.0618 2.99733 79.0618 2.344C79.0618 1.69067 79.2858 1.14933 79.7338 0.719999C80.2005 0.271999 80.7792 0.0479989 81.4698 0.0479989C82.1605 0.0479989 82.7298 0.271999 83.1778 0.719999C83.6445 1.14933 83.8778 1.69067 83.8778 2.344C83.8778 2.99733 83.6445 3.548 83.1778 3.996C82.7298 4.42533 82.1605 4.64 81.4698 4.64ZM83.4018 6.488V22H79.4818V6.488H83.4018ZM90.3548 8.728C90.8588 8.01867 91.5495 7.43067 92.4268 6.964C93.3228 6.47867 94.3401 6.236 95.4788 6.236C96.8041 6.236 97.9988 6.56267 99.0628 7.216C100.145 7.86933 100.995 8.80267 101.611 10.016C102.245 11.2107 102.563 12.6013 102.563 14.188C102.563 15.7747 102.245 17.184 101.611 18.416C100.995 19.6293 100.145 20.572 99.0628 21.244C97.9988 21.916 96.8041 22.252 95.4788 22.252C94.3401 22.252 93.3321 22.0187 92.4548 21.552C91.5961 21.0853 90.8961 20.4973 90.3548 19.788V29.392H86.4348V6.488H90.3548V8.728ZM98.5588 14.188C98.5588 13.2547 98.3628 12.452 97.9708 11.78C97.5975 11.0893 97.0935 10.5667 96.4588 10.212C95.8428 9.85733 95.1708 9.68 94.4428 9.68C93.7335 9.68 93.0615 9.86667 92.4268 10.24C91.8108 10.5947 91.3068 11.1173 90.9148 11.808C90.5415 12.4987 90.3548 13.3107 90.3548 14.244C90.3548 15.1773 90.5415 15.9893 90.9148 16.68C91.3068 17.3707 91.8108 17.9027 92.4268 18.276C93.0615 18.6307 93.7335 18.808 94.4428 18.808C95.1708 18.808 95.8428 18.6213 96.4588 18.248C97.0935 17.8747 97.5975 17.3427 97.9708 16.652C98.3628 15.9613 98.5588 15.14 98.5588 14.188ZM110.507 22.252C109.238 22.252 108.099 22.028 107.091 21.58C106.083 21.1133 105.281 20.488 104.683 19.704C104.105 18.92 103.787 18.052 103.731 17.1H107.679C107.754 17.6973 108.043 18.192 108.547 18.584C109.07 18.976 109.714 19.172 110.479 19.172C111.226 19.172 111.805 19.0227 112.215 18.724C112.645 18.4253 112.859 18.0427 112.859 17.576C112.859 17.072 112.598 16.6987 112.075 16.456C111.571 16.1947 110.759 15.9147 109.639 15.616C108.482 15.336 107.53 15.0467 106.783 14.748C106.055 14.4493 105.421 13.992 104.879 13.376C104.357 12.76 104.095 11.9293 104.095 10.884C104.095 10.0253 104.338 9.24133 104.823 8.532C105.327 7.82267 106.037 7.26267 106.951 6.852C107.885 6.44133 108.977 6.236 110.227 6.236C112.075 6.236 113.55 6.70267 114.651 7.636C115.753 8.55067 116.359 9.792 116.471 11.36H112.719C112.663 10.744 112.402 10.2587 111.935 9.904C111.487 9.53067 110.881 9.344 110.115 9.344C109.406 9.344 108.855 9.47467 108.463 9.736C108.09 9.99733 107.903 10.3613 107.903 10.828C107.903 11.3507 108.165 11.752 108.687 12.032C109.21 12.2933 110.022 12.564 111.123 12.844C112.243 13.124 113.167 13.4133 113.895 13.712C114.623 14.0107 115.249 14.4773 115.771 15.112C116.313 15.728 116.593 16.5493 116.611 17.576C116.611 18.472 116.359 19.2747 115.855 19.984C115.37 20.6933 114.661 21.2533 113.727 21.664C112.813 22.056 111.739 22.252 110.507 22.252Z" fill="#0C0407"/>
</svg>
